Coordinates
version=1
nRows=19
nColumns=24
inDegrees=yes

Units are S.I. units (second, meters, Newtons, ...)
Angles are in degrees.

endheader
time	pelvis_tilt	pelvis_list	pelvis_rotation	pelvis_tx	pelvis_ty	pelvis_tz	hip_flexion_r	hip_adduction_r	hip_rotation_r	knee_angle_r	ankle_angle_r	subtalar_angle_r	mtp_angle_r	hip_flexion_l	hip_adduction_l	hip_rotation_l	knee_angle_l	ankle_angle_l	subtalar_angle_l	mtp_angle_l	lumbar_extension	lumbar_bending	lumbar_rotation
      3.48500000	    -12.18997723	     -3.41417647	     -6.21591502	     -1.29111859	     -0.01798721	     -0.19053960	      8.36162374	      7.36668079	      5.59140296	    -11.31460743	      5.82463420	     -8.67977659	     13.27683530	     37.63299659	     -8.07548134	     -7.62159188	    -54.52928165	     -5.66016978	     -9.27930425	     10.88781232	      7.12002327	      5.24033412	      3.93348368
      3.49000000	    -12.19950230	     -3.27654941	     -6.38514002	     -1.28440800	     -0.01847025	     -0.19051629	      7.77237694	      7.18134356	      5.74571890	    -10.98641619	      6.04669492	     -8.61712010	     13.25388355	     38.07029622	     -8.03342073	     -7.69273923	    -53.33883116	     -5.46998250	     -9.07047358	     10.85007603	      7.07476711	      5.10427255	      4.13719853
      3.49500000	    -12.26579612	     -3.15439082	     -6.50444670	     -1.27769744	     -0.01909309	     -0.19056202	      7.24439756	      7.00872932	      5.86778495	    -10.65576366	      6.26780637	     -8.59142002	     13.25300008	     38.56547921	     -7.97901200	     -7.69037899	    -52.11154288	     -5.30292599	     -8.85273239	     10.81571552	      7.09305183	      4.97925069	      4.28300340
      3.50000000	    -12.21622883	     -2.99303539	     -6.71958574	     -1.27102119	     -0.01955761	     -0.19052436	      6.61287630	      6.78760767	      6.04614120	    -10.35420108	      6.48529930	     -8.48419084	     13.23925925	     38.85232284	     -7.95080827	     -7.81822390	    -50.78233117	     -5.06346989	     -8.59598155	     10.69187194	      6.97362559	      4.82299475	      4.55912532
      3.50500000	    -12.22005431	     -2.84357429	     -6.87245907	     -1.26433546	     -0.02014951	     -0.19056404	      6.03779336	      6.57496073	      6.17070687	    -10.04668867	      6.69618222	     -8.42859959	     13.21490933	     39.19240558	     -7.89862004	     -7.87080744	    -49.41591441	     -4.84153050	     -8.34309452	     10.49339726	      6.91781610	      4.66909821	      4.76278652
      3.51000000	    -12.33663862	     -2.73275859	     -6.95853560	     -1.25764412	     -0.02094565	     -0.19068020	      5.58775050	      6.41163743	      6.22168745	     -9.74720959	      6.87380672	     -8.43838967	     13.20982440	     39.65883611	     -7.84839640	     -7.81294107	    -48.02158404	     -4.67069934	     -8.11491385	     10.41497606	      6.98592188	      4.55354056	      4.89977193
      3.51500000	    -12.27821289	     -2.54689597	     -7.17128011	     -1.25097207	     -0.02150725	     -0.19062347	      4.96179763	      6.15488936	      6.38286558	     -9.45796513	      7.10633261	     -8.32315663	     13.19165837	     39.83995797	     -7.82428441	     -7.98594663	    -46.52822504	     -4.41513825	     -7.84919677	     10.08831551	      6.86098900	      4.35785077	      5.17552085
      3.52000000	    -12.24880245	     -2.37222327	     -7.31787201	     -1.24433169	     -0.02214045	     -0.19070286	      4.38273038	      5.90268187	      6.44461144	     -9.18866238	      7.31604885	     -8.24310069	     13.13082545	     40.03868594	     -7.74621157	     -8.03727533	    -44.99124894	     -4.12927831	     -7.60304904	      9.46552454	      6.75840770	      4.16619048	      5.41307259
      3.52500000	    -12.26711694	     -2.24316221	     -7.36458365	     -1.23760459	     -0.02291559	     -0.19092128	      3.84013126	      5.69376661	      6.33883262	     -8.90804362	      7.54472512	     -8.13885213	     12.92254798	     40.30390677	     -7.65587315	     -8.01583086	    -43.50736736	     -3.51497117	     -7.17570319	      7.53348710	      6.72359275	      4.01491198	      5.49471307
      3.53000000	    -12.41671364	     -2.10000416	     -7.53192101	     -1.23097814	     -0.02383680	     -0.19092177	      3.47279359	      5.50702719	      6.43057795	     -8.67746084	      7.72184729	     -8.08685497	     12.93007323	     40.65153965	     -7.66888422	     -8.08368131	    -41.89743500	     -3.35887241	     -6.98454156	      7.37524129	      6.81530130	      3.87137712	      5.71313866
      3.53500000	    -12.41640472	     -1.92278814	     -7.67929420	     -1.22437200	     -0.02459426	     -0.19100254	      2.95943000	      5.25612956	      6.40062532	     -8.45776653	      7.93090322	     -7.96960959	     12.93318128	     40.78194503	     -7.60849136	     -8.15634828	    -40.20907668	     -3.17765479	     -6.86207031	      6.98219607	      6.73948366	      3.67402534	      5.97524462
      3.54000000	    -12.42566034	     -1.74817631	     -7.79190872	     -1.21772393	     -0.02539219	     -0.19112007	      2.45810489	      5.00519148	      6.26932134	     -8.24164368	      8.14734489	     -7.79853192	     12.93365412	     40.89947176	     -7.53345011	     -8.21665491	    -38.49983737	     -2.96663312	     -6.72999101	      6.35203827	      6.68158934	      3.47174285	      6.17682989
      3.54500000	    -12.46310071	     -1.57860865	     -7.90110707	     -1.21105311	     -0.02626322	     -0.19122807	      1.99219360	      4.76643407	      6.10749436	     -8.03815210	      8.36850409	     -7.62147944	     12.93331093	     41.02285568	     -7.46714114	     -8.27454165	    -36.77851246	     -2.73656427	     -6.61471036	      5.59458078	      6.65776325	      3.27083784	      6.36850020
      3.55000000	    -12.47644672	     -1.41199494	     -7.99840235	     -1.20439180	     -0.02711073	     -0.19136596	      1.51436143	      4.52851758	      5.84804771	     -7.85441467	      8.57804074	     -7.40109359	     12.92565897	     41.09694231	     -7.39276082	     -8.31988555	    -35.05056922	     -2.49047547	     -6.48149057	      4.60392197	      6.60269346	      3.06539826	      6.55864009
      3.55500000	    -12.65758184	     -1.31874650	     -8.06728690	     -1.19771638	     -0.02822776	     -0.19142242	      1.20850199	      4.41727281	      5.63306639	     -7.67639019	      8.65801632	     -7.43281470	     12.90577140	     41.36587831	     -7.41316704	     -8.30543376	    -33.35907503	     -2.35961939	     -6.29521142	      4.34511037	      6.72416739	      2.93860453	      6.65956978
      3.56000000	    -12.66047649	     -1.14804780	     -8.12276499	     -1.19095956	     -0.02909500	     -0.19177200	      0.74252533	      4.15543035	      5.11099472	     -7.54262802	      8.98312830	     -6.89940384	     12.85830320	     41.41786590	     -7.27491262	     -8.28648644	    -31.77238317	     -1.52151154	     -5.94944234	      0.53467294	      6.66793372	      2.73736955	      6.81970597
      3.56500000	    -12.69996181	     -0.98668944	     -8.25445736	     -1.18420802	     -0.03000253	     -0.19177127	      0.29258395	      3.94981684	      4.92974980	     -7.36290213	      9.04607176	     -6.87474244	     12.84856159	     41.45217057	     -7.25700622	     -8.39640171	    -30.05332250	     -1.51016317	     -5.91709197	      0.31042743	      6.65271881	      2.52372807	      7.03782771
      3.57000000	    -12.69646295	     -0.81590557	     -8.34809328	     -1.17743290	     -0.03086080	     -0.19188846	     -0.17323477	      3.71914452	      4.54289644	     -7.23537790	      9.17772030	     -6.66249711	     12.87159332	     41.42831097	     -7.18079241	     -8.44236334	    -28.35826689	     -1.53268881	     -5.95114586	     -0.08171966	      6.58949619	      2.29346481	      7.22376843
      3.57500000	    -12.65153770	     -0.66065189	     -8.43740437	     -1.17068086	     -0.03168764	     -0.19211456	     -0.64567832	      3.49252043	      4.02038819	     -7.17641734	      9.35320749	     -6.32589085	     12.93129319	     41.35794731	     -7.09754265	     -8.44746579	    -26.72780610	     -1.50083156	     -5.97421119	     -0.75345745	      6.46645932	      2.08637831	      7.42986939
